<svg xmlns="http://www.w3.org/2000/svg" width="240" height="48" viewBox="0 0 240 48" shape-rendering="crispEdges">
  <defs>
    <style>
      .shadow { fill: #06101d; opacity: .35; }
      .outline { fill: #07101d; }
      .skin { fill: #f4c38d; }
      .hair { fill: #2a1720; }
      .face { fill: #f8d5a6; }
      .eye { fill: #07101d; }
      .desk { fill: #6a4b2f; }
      .screen { fill: #b9e6ff; }
      .screen-dark { fill: #1c3048; }
      .badge { fill: #f4c84a; }
      .normal-a { fill: #2a7b52; }
      .normal-b { fill: #183c2b; }
      .warning-a { fill: #8b6b24; }
      .warning-b { fill: #3f3218; }
      .danger-a { fill: #7d2f3f; }
      .danger-b { fill: #3b1f2a; }
      .dist-a { fill: #5da9ff; }
      .dist-b { fill: #1d3f68; }
      .event-a { fill: #9d7cff; }
      .event-b { fill: #3b266d; }
      .paper { fill: #e9f2ff; }
      .green { fill: #35d07f; }
      .red { fill: #ff6b6b; }
    </style>
  </defs>

  <g id="agent-normal">
    <rect class="shadow" x="6" y="39" width="36" height="5"/>
    <rect class="outline" x="12" y="6" width="24" height="34"/>
    <rect class="hair" x="16" y="8" width="16" height="8"/>
    <rect class="face" x="14" y="14" width="20" height="11"/>
    <rect class="eye" x="18" y="18" width="3" height="3"/>
    <rect class="eye" x="27" y="18" width="3" height="3"/>
    <rect class="normal-a" x="14" y="25" width="20" height="9"/>
    <rect class="normal-b" x="14" y="34" width="20" height="5"/>
    <rect class="badge" x="28" y="27" width="4" height="4"/>
    <rect class="desk" x="8" y="34" width="32" height="5"/>
    <rect class="screen" x="17" y="28" width="14" height="7"/>
    <rect class="screen-dark" x="19" y="30" width="10" height="3"/>
  </g>

  <g id="agent-warning" transform="translate(48)">
    <rect class="shadow" x="6" y="39" width="36" height="5"/>
    <rect class="outline" x="12" y="6" width="24" height="34"/>
    <rect class="hair" x="16" y="8" width="16" height="8"/>
    <rect class="face" x="14" y="14" width="20" height="11"/>
    <rect class="eye" x="18" y="18" width="3" height="3"/>
    <rect class="eye" x="27" y="18" width="3" height="3"/>
    <rect class="warning-a" x="14" y="25" width="20" height="9"/>
    <rect class="warning-b" x="14" y="34" width="20" height="5"/>
    <rect class="badge" x="28" y="27" width="4" height="4"/>
    <rect class="desk" x="8" y="34" width="32" height="5"/>
    <rect class="screen" x="17" y="28" width="14" height="7"/>
    <rect class="screen-dark" x="19" y="30" width="10" height="3"/>
    <rect class="badge" x="35" y="10" width="5" height="12"/>
    <rect class="outline" x="36" y="13" width="3" height="5"/>
    <rect class="outline" x="36" y="20" width="3" height="2"/>
  </g>

  <g id="agent-danger" transform="translate(96)">
    <rect class="shadow" x="6" y="39" width="36" height="5"/>
    <rect class="outline" x="12" y="6" width="24" height="34"/>
    <rect class="hair" x="16" y="8" width="16" height="8"/>
    <rect class="face" x="14" y="14" width="20" height="11"/>
    <rect class="eye" x="18" y="18" width="4" height="3"/>
    <rect class="eye" x="27" y="18" width="4" height="3"/>
    <rect class="danger-a" x="14" y="25" width="20" height="9"/>
    <rect class="danger-b" x="14" y="34" width="20" height="5"/>
    <rect class="red" x="28" y="27" width="4" height="4"/>
    <rect class="desk" x="8" y="34" width="32" height="5"/>
    <rect class="screen" x="17" y="28" width="14" height="7"/>
    <rect class="screen-dark" x="19" y="30" width="10" height="3"/>
    <rect class="red" x="34" y="9" width="6" height="6"/>
    <rect class="red" x="34" y="18" width="6" height="6"/>
  </g>

  <g id="distributor" transform="translate(144)">
    <rect class="shadow" x="5" y="39" width="38" height="5"/>
    <rect class="outline" x="11" y="7" width="26" height="32"/>
    <rect class="dist-b" x="15" y="9" width="18" height="7"/>
    <rect class="face" x="14" y="15" width="20" height="10"/>
    <rect class="eye" x="18" y="19" width="3" height="3"/>
    <rect class="eye" x="27" y="19" width="3" height="3"/>
    <rect class="dist-a" x="13" y="25" width="22" height="9"/>
    <rect class="dist-b" x="13" y="34" width="22" height="5"/>
    <rect class="paper" x="7" y="30" width="11" height="9"/>
    <rect class="screen-dark" x="9" y="32" width="7" height="1"/>
    <rect class="screen-dark" x="9" y="35" width="6" height="1"/>
    <rect class="green" x="31" y="27" width="7" height="7"/>
  </g>

  <g id="event-board" transform="translate(192)">
    <rect class="shadow" x="6" y="39" width="36" height="5"/>
    <rect class="outline" x="10" y="8" width="28" height="31"/>
    <rect class="event-b" x="13" y="11" width="22" height="25"/>
    <rect class="event-a" x="16" y="14" width="16" height="3"/>
    <rect class="paper" x="16" y="20" width="16" height="2"/>
    <rect class="green" x="16" y="25" width="4" height="4"/>
    <rect class="paper" x="22" y="26" width="10" height="2"/>
    <rect class="red" x="16" y="31" width="4" height="4"/>
    <rect class="paper" x="22" y="32" width="10" height="2"/>
    <rect class="badge" x="34" y="6" width="6" height="6"/>
  </g>
</svg>
