<svg xmlns="http://www.w3.org/2000/svg" width="672" height="96" viewBox="0 0 672 96" shape-rendering="crispEdges">
  <defs>
    <style>
      .shadow { fill: #06101d; opacity: .35; }
      .outline { fill: #07101d; }
      .skin { fill: #f4c38d; }
      .hair { fill: #2a1720; }
      .hair-b { fill: #56311d; }
      .face { fill: #f8d5a6; }
      .eye { fill: #07101d; }
      .blush { fill: #ee8b7d; }
      .desk { fill: #6a4b2f; }
      .desk-hi { fill: #b2773c; }
      .screen { fill: #b9e6ff; }
      .screen-dark { fill: #1c3048; }
      .badge { fill: #f4c84a; }
      .normal-a { fill: #2a7b52; }
      .normal-b { fill: #183c2b; }
      .scribe-a { fill: #386a9e; }
      .scribe-b { fill: #172b4a; }
      .ranger-a { fill: #2c7c61; }
      .ranger-b { fill: #163a2f; }
      .guardian-a { fill: #8b6b24; }
      .guardian-b { fill: #3f3218; }
      .seer-a { fill: #9d7cff; }
      .seer-b { fill: #3b266d; }
      .runner-a { fill: #d06b35; }
      .runner-b { fill: #55291f; }
      .dist-a { fill: #5da9ff; }
      .dist-b { fill: #1d3f68; }
      .event-a { fill: #9d7cff; }
      .event-b { fill: #3b266d; }
      .paper { fill: #e9f2ff; }
      .paper-line { fill: #6d7f95; }
      .green { fill: #35d07f; }
      .red { fill: #ff6b6b; }
      .rack-a { fill: #101d30; }
      .rack-b { fill: #233b5d; }
      .rack-c { fill: #5da9ff; }
      .board-a { fill: #e7e2d3; }
      .board-b { fill: #b7bdc5; }
      .board-line { fill: #293646; }
      .couch-a { fill: #61422d; }
      .couch-b { fill: #252d42; }
    </style>
  </defs>

  <g id="agent-normal">
    <g id="agent-artificer">
      <rect class="shadow" x="6" y="42" width="36" height="5"/>
      <rect class="outline" x="11" y="7" width="26" height="35"/>
      <rect class="normal-b" x="14" y="6" width="20" height="7"/>
      <rect class="normal-a" x="17" y="4" width="14" height="4"/>
      <rect class="hair" x="15" y="12" width="18" height="6"/>
      <rect class="face" x="14" y="17" width="20" height="10"/>
      <rect class="eye" x="18" y="20" width="3" height="3"/>
      <rect class="eye" x="27" y="20" width="3" height="3"/>
      <rect class="blush" x="16" y="24" width="3" height="2"/>
      <rect class="normal-a" x="13" y="27" width="22" height="10"/>
      <rect class="normal-b" x="13" y="37" width="22" height="5"/>
      <rect class="badge" x="29" y="29" width="4" height="4"/>
      <rect class="desk" x="7" y="35" width="34" height="5"/>
      <rect class="desk-hi" x="9" y="35" width="11" height="2"/>
      <rect class="screen" x="17" y="28" width="14" height="8"/>
      <rect class="screen-dark" x="19" y="30" width="10" height="4"/>
      <rect class="green" x="35" y="12" width="4" height="4"/>
    </g>
  </g>

  <g id="agent-warning" transform="translate(48)">
    <g id="agent-scribe">
      <rect class="shadow" x="6" y="42" width="36" height="5"/>
      <rect class="outline" x="11" y="7" width="26" height="35"/>
      <rect class="scribe-b" x="14" y="6" width="20" height="7"/>
      <rect class="paper" x="28" y="4" width="7" height="7"/>
      <rect class="hair-b" x="15" y="12" width="18" height="6"/>
      <rect class="face" x="14" y="17" width="20" height="10"/>
      <rect class="eye" x="18" y="20" width="3" height="3"/>
      <rect class="eye" x="27" y="20" width="3" height="3"/>
      <rect class="scribe-a" x="13" y="27" width="22" height="10"/>
      <rect class="scribe-b" x="13" y="37" width="22" height="5"/>
      <rect class="paper" x="8" y="29" width="9" height="10"/>
      <rect class="paper-line" x="10" y="32" width="5" height="1"/>
      <rect class="paper-line" x="10" y="35" width="4" height="1"/>
      <rect class="desk" x="7" y="35" width="34" height="5"/>
      <rect class="screen" x="18" y="29" width="13" height="7"/>
      <rect class="screen-dark" x="20" y="31" width="9" height="3"/>
      <rect class="badge" x="34" y="11" width="5" height="11"/>
      <rect class="outline" x="35" y="14" width="3" height="4"/>
      <rect class="outline" x="35" y="20" width="3" height="2"/>
    </g>
  </g>

  <g id="agent-danger" transform="translate(96)">
    <g id="agent-ranger">
      <rect class="shadow" x="6" y="42" width="36" height="5"/>
      <rect class="outline" x="11" y="7" width="26" height="35"/>
      <rect class="ranger-b" x="14" y="6" width="20" height="7"/>
      <rect class="green" x="18" y="4" width="12" height="3"/>
      <rect class="hair" x="15" y="12" width="18" height="6"/>
      <rect class="face" x="14" y="17" width="20" height="10"/>
      <rect class="eye" x="18" y="20" width="4" height="3"/>
      <rect class="eye" x="27" y="20" width="4" height="3"/>
      <rect class="ranger-a" x="13" y="27" width="22" height="10"/>
      <rect class="ranger-b" x="13" y="37" width="22" height="5"/>
      <rect class="badge" x="29" y="29" width="4" height="4"/>
      <rect class="desk" x="7" y="35" width="34" height="5"/>
      <rect class="screen" x="17" y="28" width="14" height="8"/>
      <rect class="screen-dark" x="19" y="30" width="10" height="4"/>
      <rect class="red" x="34" y="9" width="6" height="6"/>
      <rect class="red" x="34" y="18" width="6" height="6"/>
    </g>
  </g>

  <g id="agent-guardian" transform="translate(144)">
    <rect class="shadow" x="6" y="42" width="36" height="5"/>
    <rect class="outline" x="11" y="7" width="26" height="35"/>
    <rect class="guardian-b" x="14" y="6" width="20" height="7"/>
    <rect class="badge" x="17" y="4" width="14" height="4"/>
    <rect class="hair" x="15" y="12" width="18" height="6"/>
    <rect class="face" x="14" y="17" width="20" height="10"/>
    <rect class="eye" x="18" y="20" width="3" height="3"/>
    <rect class="eye" x="27" y="20" width="3" height="3"/>
    <rect class="guardian-a" x="13" y="27" width="22" height="10"/>
    <rect class="guardian-b" x="13" y="37" width="22" height="5"/>
    <rect class="desk" x="7" y="35" width="34" height="5"/>
    <rect class="screen" x="17" y="28" width="14" height="8"/>
    <rect class="screen-dark" x="19" y="30" width="10" height="4"/>
    <rect class="green" x="33" y="28" width="5" height="5"/>
    <rect class="outline" x="34" y="29" width="3" height="3"/>
  </g>

  <g id="agent-seer" transform="translate(192)">
    <rect class="shadow" x="6" y="42" width="36" height="5"/>
    <rect class="outline" x="11" y="7" width="26" height="35"/>
    <rect class="seer-b" x="14" y="6" width="20" height="7"/>
    <rect class="event-a" x="18" y="4" width="12" height="3"/>
    <rect class="hair-b" x="15" y="12" width="18" height="6"/>
    <rect class="face" x="14" y="17" width="20" height="10"/>
    <rect class="eye" x="18" y="20" width="3" height="3"/>
    <rect class="eye" x="27" y="20" width="3" height="3"/>
    <rect class="seer-a" x="13" y="27" width="22" height="10"/>
    <rect class="seer-b" x="13" y="37" width="22" height="5"/>
    <rect class="desk" x="7" y="35" width="34" height="5"/>
    <rect class="screen" x="17" y="28" width="14" height="8"/>
    <rect class="screen-dark" x="19" y="30" width="10" height="4"/>
    <rect class="event-a" x="34" y="11" width="5" height="5"/>
    <rect class="paper" x="35" y="12" width="3" height="3"/>
  </g>

  <g id="agent-runner" transform="translate(240)">
    <rect class="shadow" x="6" y="42" width="36" height="5"/>
    <rect class="outline" x="11" y="7" width="26" height="35"/>
    <rect class="runner-b" x="14" y="6" width="20" height="7"/>
    <rect class="runner-a" x="17" y="4" width="14" height="3"/>
    <rect class="hair" x="15" y="12" width="18" height="6"/>
    <rect class="face" x="14" y="17" width="20" height="10"/>
    <rect class="eye" x="18" y="20" width="3" height="3"/>
    <rect class="eye" x="27" y="20" width="3" height="3"/>
    <rect class="runner-a" x="13" y="27" width="22" height="10"/>
    <rect class="runner-b" x="13" y="37" width="22" height="5"/>
    <rect class="desk" x="7" y="35" width="34" height="5"/>
    <rect class="screen" x="17" y="28" width="14" height="8"/>
    <rect class="screen-dark" x="19" y="30" width="10" height="4"/>
    <rect class="green" x="34" y="28" width="5" height="8"/>
    <rect class="paper" x="35" y="29" width="3" height="5"/>
  </g>

  <g id="distributor" transform="translate(288)">
    <rect class="shadow" x="5" y="42" width="38" height="5"/>
    <rect class="outline" x="11" y="8" width="26" height="33"/>
    <rect class="dist-b" x="15" y="8" width="18" height="7"/>
    <rect class="badge" x="27" y="6" width="5" height="5"/>
    <rect class="face" x="14" y="15" width="20" height="10"/>
    <rect class="eye" x="18" y="19" width="3" height="3"/>
    <rect class="eye" x="27" y="19" width="3" height="3"/>
    <rect class="dist-a" x="13" y="25" width="22" height="10"/>
    <rect class="dist-b" x="13" y="35" width="22" height="6"/>
    <rect class="paper" x="7" y="30" width="11" height="10"/>
    <rect class="paper-line" x="9" y="33" width="7" height="1"/>
    <rect class="paper-line" x="9" y="36" width="6" height="1"/>
    <rect class="green" x="31" y="27" width="7" height="7"/>
  </g>

  <g id="event-board" transform="translate(336)">
    <rect class="shadow" x="5" y="42" width="38" height="5"/>
    <rect class="outline" x="11" y="8" width="26" height="33"/>
    <rect class="event-b" x="15" y="8" width="18" height="7"/>
    <rect class="hair-b" x="15" y="13" width="18" height="5"/>
    <rect class="face" x="14" y="17" width="20" height="10"/>
    <rect class="eye" x="18" y="20" width="3" height="3"/>
    <rect class="eye" x="27" y="20" width="3" height="3"/>
    <rect class="event-a" x="13" y="27" width="22" height="9"/>
    <rect class="event-b" x="13" y="36" width="22" height="5"/>
    <rect class="outline" x="7" y="27" width="14" height="13"/>
    <rect class="paper" x="9" y="29" width="10" height="9"/>
    <rect class="green" x="10" y="31" width="3" height="3"/>
    <rect class="red" x="10" y="35" width="3" height="3"/>
    <rect class="paper-line" x="14" y="32" width="4" height="1"/>
    <rect class="paper-line" x="14" y="36" width="4" height="1"/>
    <rect class="badge" x="34" y="8" width="6" height="6"/>
  </g>

  <g id="server-rack" transform="translate(384)">
    <rect class="shadow" x="8" y="68" width="80" height="7"/>
    <rect class="outline" x="10" y="9" width="76" height="60"/>
    <rect class="rack-a" x="14" y="13" width="68" height="52"/>
    <rect class="rack-b" x="18" y="17" width="60" height="8"/>
    <rect class="rack-b" x="18" y="29" width="60" height="8"/>
    <rect class="rack-b" x="18" y="41" width="60" height="8"/>
    <rect class="rack-b" x="18" y="53" width="60" height="8"/>
    <rect class="rack-c" x="22" y="20" width="5" height="3"/>
    <rect class="green" x="31" y="20" width="5" height="3"/>
    <rect class="rack-c" x="22" y="32" width="5" height="3"/>
    <rect class="red" x="31" y="32" width="5" height="3"/>
    <rect class="green" x="22" y="44" width="5" height="3"/>
    <rect class="rack-c" x="31" y="44" width="5" height="3"/>
    <rect class="green" x="22" y="56" width="5" height="3"/>
    <rect class="rack-c" x="31" y="56" width="5" height="3"/>
    <rect class="screen-dark" x="45" y="20" width="28" height="3"/>
    <rect class="screen-dark" x="45" y="32" width="28" height="3"/>
    <rect class="screen-dark" x="45" y="44" width="28" height="3"/>
    <rect class="screen-dark" x="45" y="56" width="28" height="3"/>
  </g>

  <g id="whiteboard" transform="translate(480)">
    <rect class="shadow" x="10" y="68" width="76" height="7"/>
    <rect class="outline" x="9" y="10" width="78" height="54"/>
    <rect class="board-b" x="13" y="14" width="70" height="46"/>
    <rect class="board-a" x="17" y="18" width="62" height="38"/>
    <rect class="board-line" x="22" y="23" width="23" height="4"/>
    <rect class="green" x="22" y="33" width="5" height="5"/>
    <rect class="board-line" x="31" y="34" width="31" height="3"/>
    <rect class="badge" x="22" y="43" width="5" height="5"/>
    <rect class="board-line" x="31" y="44" width="35" height="3"/>
    <rect class="red" x="22" y="53" width="5" height="5"/>
    <rect class="board-line" x="31" y="54" width="25" height="3"/>
    <rect class="screen-dark" x="73" y="50" width="5" height="9"/>
  </g>

  <g id="couch" transform="translate(576)">
    <rect class="shadow" x="9" y="67" width="78" height="8"/>
    <rect class="outline" x="13" y="30" width="70" height="32"/>
    <rect class="couch-b" x="17" y="34" width="62" height="24"/>
    <rect class="outline" x="9" y="42" width="78" height="20"/>
    <rect class="couch-a" x="13" y="45" width="70" height="13"/>
    <rect class="couch-a" x="19" y="24" width="24" height="18"/>
    <rect class="couch-a" x="53" y="24" width="24" height="18"/>
    <rect class="couch-b" x="46" y="28" width="4" height="30"/>
    <rect class="outline" x="17" y="60" width="9" height="7"/>
    <rect class="outline" x="70" y="60" width="9" height="7"/>
  </g>
</svg>
